<?xml version="1.0" encoding="utf-8"?>
<!-- Generator: Adobe Illustrator 25.4.1, SVG Export Plug-In . SVG Version: 6.00 Build 0)  -->
<svg version="1.1" id="Contours" xmlns="http://www.w3.org/2000/svg" xmlns:xlink="http://www.w3.org/1999/xlink" x="0px" y="0px"
	 viewBox="0 0 659.1 659.1" style="enable-background:new 0 0 659.1 659.1;" xml:space="preserve">
<style type="text/css">
	.st0{fill:#E60C0C;}
	.st1{fill:#FFFFFF;}
</style>
<path class="st0" d="M3.8,276.3c1.9-7.4,3.4-14.4,5.7-21.1c3.2-9,6.7-17.9,10.6-26.6c6.4-14.4,12.8-28.7,19.8-42.8
	c4-8.1,8.1-16.2,15.1-22.3c0.9-0.8,1.8-2,2.1-3.1c2.8-11.1,11.2-18.5,17.5-27.2c5.5-7.7,11.3-15.3,18-21.9
	c11.6-11.4,24.2-22,38.5-29.9c18.4-10.2,36.5-21.3,55.7-29.7c18.9-8.3,38.9-14,58.6-20.2c10.5-3.4,21.3-5.8,32.1-8.2
	c10.3-2.3,20.8-3.7,31.1-6c13.3-3,26.7-4.7,40.3-3.8c9.8,0.6,19.7,1.3,29.4,3.1c13.2,2.4,26.3,5.5,39.3,9c9.1,2.4,17.7,6.6,26.8,8.8
	c25.5,6.1,48,18.9,70.6,31.1c16.2,8.8,31.3,19.6,46.5,30.3c10.5,7.4,20.3,15.7,30.1,24c13.1,11,22.1,25.1,30,40
	c13.1,24.6,19.8,51.6,27.3,78.2c2.8,10,5.9,20,7.8,30.2c1.3,7.1,0.8,14.5,1.2,21.7c0.2,2.7,0.9,5.4,0.9,8.1
	c0.1,16.7,0.6,33.4-0.2,50c-0.5,11.4-3,22.7-4.7,34c-1.6,10.5-3,21-5.2,31.4c-1.8,8.1-4.6,16.1-7.2,24c-5.1,15.7-10,31.5-15.9,46.9
	c-3.9,10.2-9,20-13.8,29.8c-7.1,14.2-17.3,26.3-26.8,38.9c-9.1,11.9-17.8,24.2-27.8,35.4c-5.1,5.8-12.4,9.8-19,14.3
	c-7.7,5.4-15.2,11.4-23.6,15.4c-10.8,5.1-22.3,9.2-33.8,12.5c-11,3.2-22.3,5-33.6,7.1c-6.9,1.3-13.8,2.3-20.7,3
	c-10.7,1.2-21.5,2.2-32.3,3c-11.9,0.9-23.9,0.6-35.6,2.3c-12.5,1.7-23.9-2-35.6-4.4c-5.1-1.1-10.2-1.8-15.4-2.8
	c-10.8-2-21.6-4.2-32.5-6c-7.1-1.2-14.2-1.7-21.3-3c-8.8-1.6-17.6-3.3-26.2-5.6c-11.8-3.1-23.6-6.4-35.1-10.5
	c-7.5-2.7-14.5-6.8-21.7-10.3c-4.7-2.2-9.6-4.2-14.3-6.6c-11.3-5.7-22.7-11.2-33.7-17.6c-8-4.6-15.5-10.3-23-15.8
	c-12.6-9.2-21-22.1-30-34.4c-8-10.8-15.5-22.1-21.9-33.9c-5.9-10.8-10.5-22.3-15-33.7c-4.6-11.6-8.9-23.4-12.3-35.4
	c-4.5-15.7-8.3-31.7-11.8-47.6c-2.8-12.8-5.3-25.6-6.9-38.6c-1.4-11-2.2-22.1-1.9-33.1C0.3,296.3,2.5,286.5,3.8,276.3 M636.8,440.8
	c0.2-1.2,0.4-2.5,0.7-3.7c2.1-7.6,4.5-15.2,6.2-22.9c2.3-10.8,4.3-21.6,6.1-32.5c1.8-10.8,4.2-21.6,4.8-32.4c0.8-16,0.3-32,0.1-48
	c0-3.6-1.9-7.1-1.8-10.7c0.1-5.8,1.4-11.6,1.7-17.3c0.1-2-1.4-5.6-2.3-5.7c-2.9-0.1-2.7-1.6-2.6-3.5c0-1.8,0.2-3.7-0.2-5.4
	c-1.8-7.9-3.7-15.8-5.9-23.6c-3.5-12.2-6.9-24.4-11.1-36.4c-3.2-9.3-5.2-19.1-10.7-27.6c-3.7-5.6-5.7-12.3-9.1-18.2
	c-3.6-6.2-7.4-12.5-12.2-17.9c-6.5-7.4-13.7-14.4-21.2-20.7c-8.4-7-17.4-13.2-26.4-19.3C539.4,85.8,526.1,76,511.7,68
	c-24-13.4-48.8-25.2-75.8-31.8c-15.2-3.7-30.4-8-45.5-11.9c-16.1-4.2-32.2-9.3-49.3-7.1c-5.3,0.7-10.8,0.3-16.1,1.1
	c-13.1,2.1-26.2,4.1-39.1,7c-18,4.2-35.9,8.8-53.7,14c-33.6,9.7-65.1,24.2-94.7,42.9c-14.6,9.3-29,19.1-40.6,31.8
	c-10.4,11.5-19,24.6-28,37.3c-5.9,8.3-10.5,17.5-16.5,25.6c-7.6,10.2-13.7,21.1-18.6,32.8c-3.6,8.7-7.4,17.3-11,25.9
	c-3.1,7.4-6.5,14.7-8.9,22.3c-2.3,7.4-3.8,15.2-5.2,22.8c-1.6,8.7-3.7,17.6-3.7,26.4c0,12.8,1.6,25.5,2.8,38.2
	c0.7,7.4,1.5,14.9,3.1,22.2c2.3,10.6,5.2,21.2,7.9,31.7c2.2,8.7,4.3,17.5,6.9,26.1c7.2,23.7,16.1,46.7,28.3,68.2
	c5.7,10,12.1,19.7,18.3,29.4c2.3,3.6,4.7,7.1,7.4,10.4c5.6,6.6,10.7,13.9,17.3,19.4c8.3,6.8,17.8,12.3,27,17.9
	c7.7,4.6,15.8,8.5,23.7,12.8c1.4,0.8,3.7,1.6,3.9,2.7c0.5,2.6,1.1,2.4,2.7,0.9c0.4-0.3,1.3-0.5,1.7-0.3
	c10.6,5.4,20.8,11.5,32.2,15.3c6.6,2.2,12.7,5.5,20,6.2c3.7,0.3,9,3.1,10.1,6c1.3,3.6,3.5,3.6,5.7,4.6c1.8,0.9,3.9,1.1,5.8,1.6
	c4,0.9,7.9,2,12,2.4c1.6,0.2,3.6-2,5.1-1.7c10,1.7,20,3.8,30,5.9c5.6,1.2,11.2,2.8,16.9,3.9c8.1,1.5,16.3,2.2,24.3,4.2
	c12.2,3,24.6,4.8,37.1,4.8c11.4,0,22.7-0.5,34.1-0.9c7.2-0.2,14.4-0.6,21.6-1c3.7-0.2,7.4-0.4,11.1-1c12.6-2.2,25.1-4.5,37.6-7
	c10.2-2.1,20.6-4,30.5-7.1c9.2-2.9,18.2-6.9,26.7-11.5c8.1-4.5,15.4-10.4,23-15.7c4.1-2.9,8.9-5.1,12.4-8.6
	c9.1-9.3,15.4-21.1,25.1-29.9c0.7-0.6,1-1.6,1.5-2.3c2.1-3.1,4-6.4,6.3-9.4c9.7-12.4,18.9-25.1,25.7-39.4c5.2-11,10.4-22,14.8-33.3
	C629.7,462.5,632.8,451.8,636.8,440.8 M198.3,609.3c-1.6,1.1-1.7,2.3,0.3,3c4.4,1.4,8.8,2.8,13.3,4c0.9,0.2,2-0.5,2.9-0.8
	c-0.6-0.7-1-1.9-1.7-2.1C208.6,611.9,203.9,610.6,198.3,609.3z"/>
<path class="st0" d="M322.6,312.3c0.2,4.7,0.1,9.3,0.3,14c0,1.3,0.9,2.6,1.3,3.9c1.2-0.9,3.2-1.7,3.4-2.8c0.5-3.2,1.3-3.8,3.6-1.2
	c0.1,0.1,0.3,0.1,0.5,0.1c2.7,0.5,1.3-5.5,6-3.3c2.4,1.1,3-3.1,3.2-5.8c0.2-3.5-0.8-5.4-4.7-4.9c-0.8,0.1-1.6-0.5-2.4-0.8
	c0.7-0.4,1.4-1.1,2.2-1.1c11.2-0.1,22.4-0.2,33.7,0c9.5,0.1,19.1,0.7,28.6,0.9c3.2,0.1,6.5,0.3,9.7-0.1c1.1-0.1,2.8-1.8,2.8-2.8
	c0.5-10.8,0.8-21.6,0.9-32.3c0.1-9.9-0.2-19.9-0.4-29.8c0-0.5-0.4-0.9-0.3-1.3c1.1-4.8,1-4.8-4.6-5.6c-0.8-0.1-2.1-1.2-2-1.7
	c0.4-3.6,1.3-7.2,1.5-10.8c0.3-5.3,0-10.7,0.1-16c0-0.8,0.8-1.6,1.3-2.4c0.5,0.9,1.4,1.8,1.4,2.7c-0.2,8.1-0.5,16.1-0.7,24.2
	c-0.1,2.2,0.2,4.1,3.4,2.5c0.4-0.2,3.4,2.5,3.4,3.9c0.1,6.7-0.7,13.5-0.8,20.3c0,5.9,0.6,11.9,0.7,17.8c0,3-0.6,6-0.8,9
	c-0.4,9.4-0.3,18.8-1.2,28.1c-0.4,5.1,1.7,7.6,6,7.4c10.2-0.4,18.7,4.7,28,7.5c4,1.2,8.4,1.5,12.1,3.3c6.1,3,12.3,6.3,17.6,10.5
	c7.4,5.8,14.4,12.3,20.9,19.1c3.8,4,6.1,9.2,3.6,15.2c-0.4,0.9,0,2,0,3c0,11.1,0.1,22.1,0,33.2c-0.2,10.7-0.6,21.4-1,32.1
	c-0.3,9.8-0.7,19.5-1,29.3c-0.3,10.3-0.8,20.5-0.9,30.8c0,2.6,1.8,5.2,1.6,7.7c-0.2,2.3-1.4,5.9-3,6.4c-7.5,2.6-14.6,5.8-21.3,10.3
	c-3.9,2.6-7.9,4.5-12.9,5.3c-4.6,0.8-8.7,4.5-13.1,6.7c-2.9,1.5-5.8,2.9-8.9,3.9c-8.5,2.7-17.1,5.4-25.8,7.8
	c-6.5,1.7-13.1,3.3-19.7,4.2c-9.7,1.4-19.5,2.4-29.2,3c-11,0.7-22.1,1.4-33.1,0.9c-12.2-0.6-24.4-2.4-36.5-3.9
	c-9.8-1.2-19.6-2.2-29.3-4.1c-11.9-2.3-24-4.6-35.5-8.4c-10.2-3.3-19.6-9-29.5-13.1c-16.3-6.7-29.8-17.3-42.3-29.5
	c-9.4-9.2-17.8-19.6-27.7-28.2c-9.8-8.6-15.5-19.7-22.1-30.4c-4.5-7.5-10.3-14.4-13.5-22.4c-5.3-12.8-9.2-26.2-13.2-39.5
	c-6.4-21.1-4-42.8-3.9-64.3c0-11.9,1.4-23.9,2.9-35.7c1.9-15.5,5.3-30.6,11.8-45.1c8.1-18.2,19.3-34.3,31.4-50
	c5.2-6.7,10-13.9,16-19.8c9.1-8.7,19-16.5,28.8-24.4c6.7-5.4,13.6-10.4,20.7-15.3c14.6-10.1,30.8-16.9,47.5-23
	c14.9-5.4,30.3-8.3,45.6-11.6c5.9-1.3,12.1-1.8,18.2-2c18.5-0.8,37.1-2,55.7-1.8c12.6,0.1,25.2,2.7,37.8,3.7
	c12.6,1,24.8,3.9,36.7,8.1c19.9,7,39.1,15.4,56.9,26.7c7.9,5,16.4,9.3,23.7,15c7,5.5,13.6,11.9,18.9,18.9
	c8.3,11,15.9,22.6,22.7,34.6c7.2,12.7,13.8,25.9,19.3,39.5c4.8,11.9,7.8,24.5,11.1,36.9c1.1,4,1,8.4,1.1,12.6
	c0.2,8.6,0.5,17.1-0.1,25.7c-0.9,13.5-2.5,26.9-3.9,40.3c-1,9.4-1.6,18.9-3.1,28.2c-1.7,10.5-3.4,21.2-6.4,31.4
	c-3.8,13-8.1,26-13.8,38.2c-4.5,9.7-11.5,18.3-17.5,27.3c-7.5,11.1-16.9,20.3-27.4,28.5c-2.6,2-4.6,4.8-7.2,6.9
	c-1.1,0.9-2.9,0.8-4.3,1.1c0.4-1.6,0.2-3.7,1.2-4.7c2.7-2.6,6.1-4.6,8.9-7.2c12.7-11.6,24-24.3,33.6-38.6
	c12.6-18.8,20.3-39.7,24.8-61.7c2.7-13,4.1-26.3,6.1-39.5c1.3-8.3,2.8-16.5,3.9-24.8c0.6-4.4,0.8-8.8,1-13.3
	c0.4-10.2,1.7-20.5,0.8-30.6c-1.2-12.1-4.2-24.1-6.8-36.1c-3.5-16.5-10-31.8-18-46.5c-9.7-17.6-20.2-34.7-32.8-50.4
	c-9.1-11.4-21.1-18.8-33.2-26c-10.9-6.5-21.8-13.3-33.4-18.2c-14.6-6.1-29.9-10.9-45.2-15.1c-9.1-2.5-18.8-3.2-28.3-4.1
	c-10.4-1-20.8-1.5-31.2-2.1c-8.4-0.5-16.9-1.4-25.2-0.9c-11.2,0.7-22.2,2.5-33.3,3.8c-7.8,1-15.5,2.1-23.3,3
	c-13.9,1.6-26.7,6.9-39.8,11.4c-19.9,6.8-37.5,17.7-53.7,30.8c-12.6,10.2-25.2,20.5-36.7,31.9c-12.3,12.2-21.9,26.8-30.9,41.6
	c-3.3,5.5-7.6,10.5-10.1,16.3c-5.7,13.2-11.3,26.6-12.7,41.2c-1,10.8-2,21.5-3,32.3c-0.7,8.2-2.2,16.5-1.8,24.7
	c0.6,12.6,2.9,25.2,3.7,37.9c1,15.1,4.9,29.4,10.2,43.3c2.3,6,5.6,11.7,8.9,17.3c5.3,9,10.7,18.1,16.8,26.5
	c6.4,9,13.7,17.4,20.8,25.9c2.7,3.3,5.6,6.4,8.5,9.5c0.6,0.7,1.6,1,2.4,1.5c0.5-0.9,1.4-1.9,1.5-2.8c0.2-3,0-6.1,0.1-9.2
	c0.3-13.5,0.5-27.1,1-40.6c0.5-14.6,1.1-29.1,2-43.7c0.7-11.2,2.2-22.3,2.9-33.4c0.5-7.8,0.1-15.6,0.1-23.3c0-9.3-0.2-18.6,0.1-27.8
	c0.2-5.6,0.7-11.3,2.1-16.6c1.1-4.2,3.7-8.1,5.9-12c3.2-6,6.6-11.9,10-17.9c1.9-3.4,4.1-5.9,8.6-3.7c1.1,0.5,2.6,0.1,4,0.1
	c13,0.3,26.1,0.5,39.1,1c14.1,0.5,28.1,1.3,42.2,2c6,0.3,12.1,0.4,18.1,1.1c1.8,0.2,4.1,1.8,5,3.4c3.4,6.6,5.5,13.9,9.5,20
	c5,7.7,3.4,15.9,3.6,24c0.3,7.4-0.6,14.9,0.3,22.1c0.5,4-1.1,5.1-3.6,6.3c-8,4-16.1,7.9-24,11.9c-16.4,8.3-32.7,16.8-49.1,25.1
	c-5.5,2.8-11.2,5.1-16.7,7.9c-1.1,0.5-1.8,1.8-2.7,2.7c1.2,0.1,2.6,0.5,3.7,0.2c7.5-2.5,15-3.8,23-3.8c9.7,0.1,19.4-0.9,29.1-0.8
	c11.8,0.1,23.6,1.2,34.4,6.1c8.6,3.9,16.3,9.7,24.7,14c6.8,3.5,12.8,7.7,17,14.2c2.6,3.9,5.2,7.8,7.7,11.8c0.5,0.7,0.3,1.9,0.3,2.8
	c0,8.2,0,16.4,0,24.7c0,10.2,0.2,20.5-0.1,30.7c-0.2,7-1.3,13.9-1.6,20.9c-0.1,2.2,1.6,4.4,1.6,6.6c0,4.9-0.6,9.7-0.9,14.6
	c-0.1,2.4,0.1,4.8,0,7.2c-0.3,5.9-0.7,11.7-0.9,17.6c0,0.9,1,2.6,1.5,2.6c5.1-0.5,10.2-1,15.2-2c1-0.2,2.1-2.2,2.2-3.5
	c0.2-5.1,0.1-10.2,0.2-15.3c0-0.7,0.8-1.4,1.2-2.1c0.3,0.7,0.7,1.4,0.7,2c0.1,5.2-0.1,10.3,0.2,15.5c0.1,1.2,1.9,3.4,2.8,3.3
	c6.1-0.6,12.2-2,18.4-2.5c4.7-0.4,6.2-2.6,5.8-7c-0.1-1.1,0.6-2.2,0.9-3.4c0.4,1.1,1.2,2.2,1,3.2c-0.7,4.8,2.3,5.7,5.6,4.7
	c14.7-4.7,29.3-9.8,43.8-14.9c1.4-0.5,2.6-1.7,3.6-2.9c1.3-1.7,1.7-3.9,4.8-1.4c1.1,0.9,4.9-1,7.2-2.2c8.5-4.4,17-8.9,25.4-13.6
	c1.8-1,3.2-2.2,2.1-5.4c-1.2-3.7-0.2-8.1-0.1-12.3c0.2-4.6,1-9.3,0.6-13.9c-0.4-4.8-3.9-1.1-6-1.3c-0.9-0.1-1.9,0.3-2.9,0.5
	c0.8-0.8,1.5-2.3,2.4-2.4c5-0.6,5.7-3.4,5.8-7.9c0.1-7.2,1.3-14.4,1.8-21.7c0.2-3.4,0-6.8,0-10.2c0.3-20,0.6-40.1,1-60.1
	c0.1-2.7-0.3-4.6-3.7-4.3c-0.8,0.1-1.6-0.6-2.4-0.9c0.8-0.7,1.6-2,2.3-2c6.9,0.6,4.5-3.8,3.4-6.7c-0.9-2.4-2.5-4.9-4.5-6.6
	c-9.4-7.7-18.8-15.5-28.7-22.5c-3.5-2.5-8.5-2.7-12.8-4.1c-7.5-2.4-14.8-5.4-22.5-7.3c-8.5-2.1-17.3-3.9-26-4.8
	c-12.8-1.2-25.8-0.8-38.6-2.3c-15.9-1.9-28.2,5.6-40.9,13c-0.7,0.4-1.3,1-2,1.2c-2.5,0.6-5,1.2-7.5,1.7c-0.1-2-0.3-4.1-0.2-6.1
	c0.3-5.3,0.6-10.5,1-15.8c0-0.6,0.6-1.2,0.9-1.8c0.3,0.6,1,1.2,1,1.8c-0.2,4.4-0.8,8.7-0.8,13.1c0,1.6,1.2,3.1,1.9,4.7
	c1-0.9,2.5-1.7,2.9-2.8c0.6-1.8,0.3-3.9,0.5-5.8C320.9,320.9,321.6,316.6,322.6,312.3 M164.8,413.8c5.8-6.6,13.2-10.6,21.3-13.7
	c2.3-0.9,5.2-3.7,5.4-5.9c1.4-15.4,2.3-30.8,3.2-46.2c0.5-8,0.7-16,1-24.1c0.3-6.1,2.9-8.7,9-8.6c17.4,0.3,34.7,0.7,52.1,1
	c0.8,0,1.7,0,2.5,0c5.6,0.1,11.2,0.1,16.8,0.2c0.9,0,1.8,0.2,2.7,0.2c-0.5,0.8-0.7,2-1.4,2.3c-1.4,0.6-3,1.1-4.5,1.1
	c-3.2,0.2-6.3,0.2-9.5,0c-6.5-0.3-13.1-0.6-19.6-1c-3-0.2-4.2,0.9-4,3.9c0.2,4.3,0.3,8.7,0,13c-0.3,3.6,0.8,4.3,4.3,4.2
	c8,0,16,0.6,24.1,0.9c5.2,0.2,8.3,0.6,7.8-7.2c-0.1-2.4,0.4-4.8,0.8-7.1c0.1-0.6,0.8-1.1,1.2-1.7c0.3,0.6,0.9,1.2,0.9,1.9
	c0.1,4.7,0.2,9.3,0,14c-0.1,3.2-0.8,6.4-0.8,9.6c0,0.5,2.1,1.7,2.7,1.5c7.1-3.5,14-7.2,21-10.9c2.8-1.5,4.5-3.4,4.2-6.9
	c-0.3-3.8-0.1-7.7,0-11.5c0.1-2.7,0-5.1-3.8-4.7c-0.4,0-0.8-0.6-1.3-1c0.4-0.3,1-1,1.3-0.9c3.1,0.9,4.1-1.3,4.4-3.4
	c0.4-3.1,0.5-6.3,0.1-9.3c-0.5-3-2.1-4.6-5.9-4.5c-13.8,0.4-27.6,0.2-41.5,0.1c-4.9,0-9.8-0.9-14.7-0.9c-8.1,0.1-16.2,0.8-24.2,0.9
	c-6.9,0-13.8-0.7-20.7-0.9c-8.3-0.2-16.6,0-24.8,0c-1.1,0-2.5,0.3-3.4-0.2c-3.1-1.9-4.2-0.5-4.4,2.4c-0.4,6.2-0.8,12.5-1,18.7
	c-0.7,27.2-1.3,54.4-2.1,81.6c-0.1,2.9-0.9,5.7-0.9,8.6c0,1.6,1.2,3.3,1.9,5.4c-0.7,2.1-1.8,4.1-1.9,6.2c-1.1,16.4-2.2,32.8-3,49.2
	c-0.4,7.3,0.6,14.7-0.3,22c-0.5,4.2-0.6,7.3,2.7,10.2c5.1,4.4,9.8,9.2,14.9,13.7c0.9,0.8,2.6,0.9,3.9,1.3c0.2-1.2,0.6-2.4,0.7-3.6
	c0.4-6.6,0.3-13.2,1.2-19.7c0.4-2.6,2.3-5,6.2-4.8c7.3,0.4,14.7,0,22,0.1c6.5,0.1,13.1,0.6,19.6,1c0.7,0,1.4,0.5,2,0.7
	c-0.6,0.5-1.3,1.5-1.9,1.6c-3.4,0-6.9-0.3-10.3-0.3c-10.1-0.1-20.2-0.1-30.3,0.1c-1.2,0-3.2,1.4-3.3,2.3c-0.9,7.2-1.4,14.4-2.2,21.6
	c-0.4,4,1.1,5,5,5c11.4,0,22.7,0.6,34.1,0.9c3.8,0.1,5.8-1.9,5.9-5.6c0.1-3-0.3-6,0.1-9c0.9-7.7,0.6-8.2-7.2-8.4
	c-10-0.3-20.1-0.6-30.1-1c-0.9,0-1.9-0.6-2.8-0.9c0.9-0.3,1.9-1,2.8-1c12.7,0.3,25.4,0.7,38.1,0.9c3.3,0.1,3.3,2,3.1,4.3
	c-0.3,5.7-0.8,11.4-1,17.1c-0.2,4.7-2,6.8-6.9,6.7c-8.2-0.2-16.4-0.6-24.6-1c-1.2-0.1-2.5-0.7-3.7-0.6c-1.9,0.1-3.8,0.7-5.8,1
	c1.3,1.2,2.3,2.8,3.8,3.5c11.5,5.1,23,10.4,34.8,14.9c5.6,2.2,11.8,2.9,17.8,4c1,0.2,3.3-1,3.4-1.7c0.4-4.3,4.1-4,6.5-4
	c6.2-0.1,12.4,0.7,18.6,0.8c7.1,0.2,9,1.9,10.2,9c0.3,1.5,1.6,3.4,2.9,3.9c2.3,0.9,5,0.8,7.5,1.2c4.6,0.7,7.2-0.4,6.5-5.9
	c-0.5-3.9,1.1-6.4,5.8-6.1c8.7,0.5,17.4,0.5,26.1,1.2c1.5,0.1,3.5,2.6,3.9,4.3c0.7,2.7,0,5.6,0.3,8.4c0.1,1,1,2.7,1.6,2.7
	c2,0.1,4.2-0.1,6.1-0.8c0.9-0.3,2-1.7,2.1-2.6c0.5-12.7,0.9-25.4,1-38.1c0-7.1-0.8-14.2-0.9-21.2c-0.1-17.2-0.2-34.4,0.1-51.6
	c0.1-7.1-0.5-13.5-5-19.5c-4.3-5.7-8-11.9-14.9-15.2c-5-2.4-9.8-5.4-14.5-8.4c-13.4-8.8-28.1-13.1-44-13.1
	c-11.4,0-22.8,0.1-34.1,1.1c-9.9,0.9-19.7,2.7-29.4,4.9c-13.7,3.2-26,9.7-38,16.8C168.6,414.1,166.6,413.9,164.8,413.8 M302.8,291.8
	c-2.7-4.4-6.9-8.5-7.6-13.2c-1-6.3-4.7-6.9-9.1-7.2c-10.5-0.9-21.1-1.5-31.6-2c-13.9-0.7-27.8-1.5-41.6-2c-8.3-0.3-16.7-0.3-25,0.1
	c-2.1,0.1-4.9,1.7-5.9,3.4c-3.1,5.5-5.5,11.4-8.2,17.1c-1,2.1-2,4.2-3,6.3c2.3,0,4.5,0,6.8,0.1c5.4,0.3,10.7,0.9,16.1,0.9
	c26.6,0.4,53.1,0.7,79.7,1c8.8,0.1,17.7,0,26.5,0C302.1,296.2,305.5,297,302.8,291.8 M227.3,339.3c1,0,2-0.1,3,0
	c3.6,0.4,6-0.1,5.6-4.9c-0.3-3.5,0.5-7.1,0.9-10.7c0.3-2.9-0.4-4.5-4-4.5c-8.9-0.1-17.8-0.3-26.7-1c-4.7-0.4-6,2.1-6.3,5.7
	c-0.8,11.7-1.3,23.4-2.1,35.1c-0.3,4,0.8,5.5,5.1,5.4c9.5-0.3,19-1.5,28.4,0.7c0.9,0.2,3.2-1.6,3.3-2.7c0.7-5.5,0.9-11,1-16.5
	c0-0.9-1.3-2.4-2.1-2.5c-7.5-0.5-15-0.8-22.5-1.1c-1.8-0.1-3.7,0.3-5.5-0.1c-1.3-0.3-2.5-1.3-3.8-2c1.3-0.6,2.6-1.8,3.9-1.8
	C212.6,338.5,219.5,338.9,227.3,339.3 M196.8,380.8c-0.3,3.5-0.8,7-0.9,10.6c0,1.2,0.4,2.5,1.2,3.4c0.3,0.3,1.9-0.1,2.8-0.6
	c3.5-1.9,6.9-4.1,10.5-5.9c10.7-5.5,21.5-10.8,32.2-16.3c1.8-0.9,3.4-2.3,5.1-3.5c-2.2-0.4-4.3-0.8-6.5-1.2c-0.2,0-0.4-0.1-0.5,0
	c-2.8,2-5,2.5-9,1.4c-7.1-1.9-14.9-1.3-22.4-1.4C196.8,367.2,196.8,367.3,196.8,380.8 M237.8,355.8c0,2.2-0.1,4.3,0.1,6.5
	c0.1,0.7,1,1.8,1.7,1.9c3.7,0.5,7.4,1.3,11.1,1c8.8-0.8,16-5.9,23-10.6c1.6-1.1,1-5.4,1.1-8.3c0-0.6-1.5-1.8-2.3-1.9
	c-10.5-0.5-21-0.8-31.5-1.1c-2.7-0.1-3.2,1.2-2.9,3.7C238.3,349.6,237.9,352.2,237.8,355.8 M323.3,547.3c-3.8,0-7.6,0.1-11.4,0
	c-2.4-0.1-4.3,0.2-4.1,3.3c0.2,3.1-1.1,7.2,3.7,7.6c6.8,0.6,13.7,0.5,20.5,1.1c5.3,0.5,3.6-4,4.6-6.3c0.8-1.7,1-4.7-2.8-4.8
	C330.7,548.1,327.5,547.6,323.3,547.3 M387.3,314.3c-5-0.3-10-0.6-15-1c-2.7-0.2-5.5-0.8-8.2-0.9c-1.5-0.1-3.2,0.3-4.6,0.9
	c-0.5,0.2-0.8,2.4-0.6,2.5c1.3,0.7,2.8,1.4,4.3,1.5c8.2,0.8,16.4,1.4,24.6,2.1c2.5,0.2,5,0.7,7.5,0.9c3.2,0.3,6.4,0.4,9.6,0.7
	c1.4,0.1,3.6,1,3.9,0.5c1-1.4,1.1-3.3,1.6-5c-1.6-0.2-3.2-0.5-4.8-0.6c-0.8,0-1.6,0.4-2.3,0.4C398.4,315.6,393.4,314.9,387.3,314.3
	 M282.8,552.8c1.4-2.4,2.3-5.9-1-6.3c-8.4-1-17-1-25.5-1.1c-0.8,0-1.7,1.5-2.5,2.3c0.7,0.5,1.4,1.4,2.2,1.6
	C264.8,550.6,273.6,551.9,282.8,552.8 M345.8,319.8c1-0.6,2-1.6,3.1-1.8c1.4-0.2,2.9,0.4,4.3,0.3c1.2-0.1,2.3-0.8,3.4-1.2
	c-0.7-1.1-1.3-3.2-2.1-3.3c-3.6-0.3-7.2-0.3-10.7,0.4c-0.7,0.1-0.7,3.7-0.9,5.8C343,319.9,344.5,320.1,345.8,319.8z"/>
<path class="st1" d="M355.8,581.3c-1.1,7.2-5.1,12.4-9.6,16.9c-3.2,3.2-2.7,5.4,0.1,8c2.5,2.3,5,4.6,7.7,6.7
	c4.2,3.2,10.1,0.3,12.8-6c0.4-0.9,1.1-1.7,1.7-2.6c1.1,0.9,2.7,1.6,3.2,2.7c0.3,0.8-0.6,2.4-1.4,3.2c-1.8,1.8-4,3.2-5.8,5
	c-1,1-1.6,2.5-2.3,3.8c2.2,1,4.3,2.1,6.5,2.9c0.9,0.3,2-0.2,3-0.3c-0.3,1-0.4,2.1-0.8,3c-0.3,0.9-0.9,1.7-1.4,2.4
	c-1,1.4-2,2.8-3.1,4.2c-0.5-1.6-1.2-3.2-1.6-4.8c-1.2-4.7-7-7-10.9-3.7c-5,4.3-11,5.7-16.9,7.4c-4.8,1.4-10.5-1.2-13.2-5.4
	c-2.1-3.4-1.2-10.6,2.2-14.2c2.4-2.4,5.1-4.5,7.7-6.7c2.3-2,3.6-3.6,2.1-7.3c-3.1-7.9-4.5-16.4,1.2-23.7c4.5-5.8,14.9-3.5,17.8,3.4
	C355.4,577.6,355.5,579.2,355.8,581.3 M332.8,610.8c-1.7,2.3-3.7,4.4-4.9,6.9c-1.4,3,1.3,7.8,4.4,7.5c5.3-0.5,10.5-1.6,15.7-3
	c2.3-0.6,2.7-2.5,0.8-4.5c-2.1-2.2-4.1-4.6-6-7c-1.4-1.8-2.7-3.6-4.1-5.4C336.9,606.9,335.1,608.6,332.8,610.8 M346.8,589.8
	c0.5-1.1,0.9-2.3,1.4-3.4c2.3-4.6,1-8.9-3.7-11c-0.9-0.4-2.7-0.3-3.4,0.3c-4.1,3.3-3.5,8.1-3.2,12.5c0.2,2.8,1.3,5.4,2,8.2
	C342.1,594.3,344.2,592.3,346.8,589.8z"/>
<path class="st1" d="M188.8,588.3c-7.4,0.6-13.4-1.3-19.5-4.8c-10.8-6.1-10.7-21.5-4.8-29.3c4.5-6,10-11.1,17.8-13.2
	c7.9-2.1,21.9,1.4,27.2,7.5c5.2,6.1,6.1,14.7,2.4,22.1c-1.2,2.5-2.2,5.1-3.6,7.5C204.3,585.6,197.4,588,188.8,588.3 M172.3,579.3
	c4.2,4,9.5,4.4,14.5,3.2c4.4-1,8.7-3.2,12.6-5.5c7.1-4.4,9.4-13.9,5.5-21.1c-4.8-8.9-18.3-12.7-27.2-7.6
	C166.5,554.7,159.2,569.3,172.3,579.3z"/>
<path class="st1" d="M347.6,38.5c0.2,5,0.1,9.7,0.3,14.4c0.2,4.4,2.2,6,6.6,5.4c2.8-0.4,5.7-0.9,8.6-1c3.2-0.1,4.9-1.3,4.8-4.7
	c0-0.8,0-1.7,0-2.5c0-9.5,2.9-12,12-9.8c1.2,0.3,2,1.8,3,2.8c-1.1,0.4-2.1,1.1-3.2,1c-3.6-0.2-4.4,0.4-4.1,4.7
	c0.6,8.8,0.3,17.8-1,26.5c-0.6,4.1,0.9,4.2,3.5,4.9c1.3,0.3,2.5,1,3.8,1.5c-1.3,0.5-2.6,1.3-3.9,1.4c-9.9,0.3-9.3-1.8-11-9.5
	c-0.5-2.5-0.9-5.7,0.1-7.9c1.6-3.3-0.1-3.5-2.2-3.5c-4.7-0.1-9.3-0.1-14,0c-2.8,0.1-4.5,4.9-3.9,8.8c0.5,2.8,0.4,6-0.5,8.6
	c-0.3,1-3.6,1.2-5.6,1.4c-0.2,0-0.8-2.3-0.9-3.5c-0.2-2.9-0.2-5.8-0.2-8.7c0-6.3,0-12.6,0-19c0-3.2,1.3-7-3.3-8.7
	c-0.1,0,0.8-3.8,1.2-3.8C341,37.4,344.2,37.9,347.6,38.5z"/>
<path class="st0" d="M343.1,171.5c1.5-0.8,3.6-1.1,3.9-2.1c1.4-4.1,4.2-2.4,6.7-1.9c8.3,1.6,16.1,5,22.7,10.1
	c3.4,2.6,6,7.1,7.3,11.3c4,12-3.2,28.5-15.3,31.9c-12.8,3.6-26.3,5.4-37.8-5.9c-3-3-4-5.4-3.7-9c0.3-4.7,0.8-9.4,1-14.1
	c0.3-6.9,6.2-10.4,9.5-15.5C338.6,174.5,341,173.3,343.1,171.5 M368.3,176.3c-6.1-3.6-12.4-5.7-19.4-2.9c-2.6,1-4.8,2.9-7.1,4.4
	c1.5,1.5,3.4,2.8,4.5,4.6c5,7.9,11.7,12.3,21.4,11c0.9-0.1,2,0.8,2.9,1.2c-0.7,0.8-1.4,2.4-2.1,2.4c-5.5-0.1-11.7,1-16.2-1.3
	c-4.4-2.3-7.1-8-10.5-12.3c-0.7-0.9-1.2-2.1-1.8-3.1c-1.1,0.9-2.3,1.7-3.2,2.7c-4.1,4.9-5.7,10.4-6.3,16.9
	c-0.7,7.2,1.7,12.3,7.3,15.5c3.7,2.2,8.5,3.4,12.9,3.6c4.8,0.2,9.7-1.2,14.6-1.8c7.3-0.9,15-9.7,15.6-17.1
	C381.7,189.7,376.5,182.7,368.3,176.3z"/>
<path class="st1" d="M236.8,563.3c7.2-0.6,12.9,2.6,18,5.8c8.4,5.2,7.7,18.9,1.3,26.4c-5.8,6.8-13.2,11.5-21.7,12.3
	c-6.8,0.7-13.3-2.9-18.4-7.9c-3.6-3.6-8.5-6.9-7.1-13c2.2-9.6,8.1-16.6,17.2-20.6C229.4,564.9,232.9,564.3,236.8,563.3 M241.3,569.3
	c-10.2-1.1-18.5,2.3-25.2,10.1c-2.6,3-3.2,6.5-1.7,9.8c4,9,15.3,18,27.5,10.1c1.8-1.2,3.8-2,5.6-3.2c7.1-4.7,8.2-15.7,2.1-21.5
	C247.4,572.6,244.8,571,241.3,569.3z"/>
<path class="st1" d="M449.8,590.3c-1.7,0.8-2.8,1.6-4,2.4c1.4,0.9,2.8,1.8,4.3,2.6c4,2,7.9,4.3,12.1,5.8c3.1,1.1,6.6,0.8,10,1.3
	c1.2,0.2,2.3,0.9,3.4,1.3c-1,0.9-1.9,2.2-3.1,2.6c-5.2,1.9-10.1,0.1-14.8-2c-5.5-2.5-10.8-5.3-16.2-7.9c-1-0.5-2.3-0.6-3.5-0.8
	c0.2,1,0.3,2.1,0.7,3c2.2,4.4,0.9,10.2,5.3,13.8c0.1,0.1-0.4,1.8-0.9,1.9c-3.7,1.1-7.5,2.1-11.2,3c-0.3,0.1-1.1-0.7-1.1-1
	c0.1-1.1,0.1-2.8,0.8-3.1c5.2-2.5,4.5-6.2,3.3-10.9c-1.6-6.6-2.3-13.4-3.1-20.2c-0.3-2.6-0.8-4-3.7-3.8c-0.8,0.1-1.6-0.5-2.4-0.8
	c0.3-0.9,0.4-2.3,1-2.5c7.9-3.2,14.5-10.3,24.5-6.7c5.5,1.9,9.7,5.8,9.5,10.8C460.7,584.7,456.7,589,449.8,590.3 M436.8,574.8
	c-0.7,1.2-2,2.5-1.9,3.7c1.1,9.4,3.2,10.7,12.4,7.8c1.2-0.4,2.7-0.3,3.5-1.1c1.8-1.7,4.5-3.7,4.7-5.6c0.1-2-2.1-4.7-4.1-6
	C446.8,570.7,442,572.6,436.8,574.8z"/>
<path class="st1" d="M272.1,576.5c7.7,1.8,15.3,3.3,22.7,5.8c10.1,3.5,13.5,11.6,12,20.8c-1.3,8.7-9.1,14.8-17.9,15.2
	c-9.4,0.4-18.6-0.8-27.7-3.1c-1.3-0.3-2.7-1-3.7-1.9c-0.8-0.8-1.1-2.1-1.7-3.2c1.3-0.2,2.7-0.8,3.8-0.4c3.5,1.3,4.4,0.5,5.4-3.3
	c2-7.2,5.1-14.2,8.3-21c1.2-2.5,0.9-3.7-1.1-5.3C271.6,579.6,272,577.9,272.1,576.5 M300.8,597.8c-1.4-7.1-12.4-15.4-19.2-14.4
	c-1.4,0.2-3.1,1.7-3.7,3.1c-2.6,5.7-4.9,11.6-7.3,17.5c-0.9,2.3-1.7,4.8-2.5,7.2c2,0.4,4,0.7,6,1.2c0.3,0.1,0.5,0.6,0.7,0.6
	c7.2,0.7,14.4,1.3,21.1-2.6C299.5,608.2,302.1,602,300.8,597.8z"/>
<path class="st1" d="M306.8,37.3c6.1,0,11.6-0.4,14.2,6.5c2.5,6.8-1.9,14.3-9.1,14.4c-5,0.1-10,0-15,0c-3.9,0-6.5,1.2-6.1,5.9
	c0.3,3,0.3,6,0,9c-0.3,3,0.8,4.9,3.4,6c0.6,0.3,1.1,0.8,1.6,1.2c-0.7,0.6-1.3,1.7-2,1.8c-2.8,0.2-5.7,0.2-8.5,0
	c-0.5,0-1.5-1.1-1.4-1.7c0.2-7.7,0.8-15.5,0.9-23.2c0.1-3.9-0.4-7.7-1-11.5c-0.2-1-2.2-1.7-2.6-2.8c-0.4-1,0.1-3.4,0.4-3.5
	c7.7-1.2,15.5-2.2,23.2-3.1C305.2,36.3,305.8,36.9,306.8,37.3 M293.3,53.3c7-0.3,14.1-0.2,21.1-1.2c3.4-0.5,3.4-4.2,0.3-6.3
	c-4.6-3.2-10.1-3.8-15.5-3.4C291,42.9,290.6,44.4,293.3,53.3z"/>
<path class="st1" d="M473.8,67.3c2.1,1.3,4,2.4,5.3,4c0.8,1,1.2,2.7,1.1,4c-0.1,1.1-1.3,2-2,3c-1.1-1-2.1-2.2-3.4-3.1
	c-2.9-2-5.7-4.4-8.8-5.8c-2.5-1.1-4.9,2.4-3.9,5.5c1.7,5.8,3.6,11.5,5.2,17.3c1.9,6.5-2.5,11.9-9.3,12.1c-6.5,0.1-12.9-0.5-17.7-5.3
	c-2.9-2.9-5.7-6.2-7.5-9.9c-0.5-0.9,3.1-4.1,5.1-5.8c0.7-0.6,2.5,0.1,3.8,0.1c-0.3,1.2-0.4,2.4-0.8,3.5c-1.6,4.4,0.8,7.6,3.9,9.4
	c2.6,1.4,6.2,1.1,9.3,1c0.6,0,1.7-2.4,1.6-3.6c-0.5-6.1-1.3-12.1-1.9-18.1c-0.8-9.4,3.2-12.9,13.6-11.1
	C469.5,64.9,471.4,66.3,473.8,67.3z"/>
<path class="st0" d="M324.8,150.3c-6.5,0-12.5,0.4-18.5-0.1c-4.7-0.5-5.8,2.1-6.5,5.6c-0.3,1.2-0.4,2.5-0.7,3.7
	c-0.2,0.6-0.7,1.1-1,1.6c-0.4-0.5-1.2-1-1.2-1.5c-0.1-3.2-0.5-6.4,0.2-9.4c0.3-1.2,2.9-2.7,4.4-2.7c15.2-0.2,30.3-0.2,45.5-0.1
	c19.1,0.2,38.1,0.6,57.2,1c3.1,0.1,6.2-0.3,9.1,0.2c1.3,0.2,3.3,2.1,3.3,3.3c0.1,3.7-0.7,7.4-0.8,11.1c-0.1,2,1,4.1,0.9,6.1
	c-0.5,10.7-1.5,21.4-1.9,32.2c-0.3,9.7,0,19.3-0.1,29c0,1.7-0.7,3.5-1,5.2c-0.3-1.8-0.9-3.6-0.9-5.4c-0.1-11.2-0.2-22.3,0-33.5
	c0.1-6.1,0.9-12.2,0.9-18.2c0-5.7-0.6-11.5-0.9-17.2c0-0.3-0.1-0.7,0-1c0.4-2.3,0.9-4.6,1.3-6.9c-2.6-0.3-5.1-0.7-7.7-0.8
	c-7.8-0.1-15.7,0.1-23.5-0.1c-16.2-0.3-32.4-0.6-48.6-1C331.4,151.2,328.4,150.6,324.8,150.3z"/>
<path class="st1" d="M408.6,578.5c9.3,4.5,12.1,11.4,9.1,22.4c-3,11.1-15.1,21.9-26.3,23.2c-1.4,0.2-2.9-0.8-4.4-1.3
	c0.7-1.2,1.2-3,2.3-3.3c2.9-0.9,2-1.5,0.9-3.7c-3.9-8.2-3.6-17.2-3.2-26.1c0-0.9,1.5-1.6,2.3-2.5c0.5,0.9,1.4,1.8,1.5,2.7
	c1.1,8.6,2,17.1,3.2,25.7c0.1,0.6,1.8,1.5,2.5,1.3c8.6-2.5,18-16.5,17.4-25.5c-0.4-4.9-4.6-8.2-11-8.2c-7.5,0-15.2-1.2-22.1,3.4
	c-0.5,0.3-1.9,0.1-2.3-0.4c-0.4-0.4-0.2-2,0.2-2.3c3.3-2,6.5-5,10-5.5C395.2,577.6,401.8,578.3,408.6,578.5z"/>
<path class="st1" d="M139.8,542.3c-5.8-2-7.5-1.3-10,3.6c-0.7,1.4-1.3,2.8-2,4.2c-1.4,2.5-1.6,4.7,1,6.8c1,0.8,1.4,2.4,2,3.6
	c-1.3,0.3-2.8,1.1-4,0.7c-3.7-1.1-7.4-2.4-10.7-4.2c-2.4-1.4-2-4.3,0.7-4.5c6.2-0.3,7.5-5.1,9.4-9.2c3.7-7.8,7-15.7,10.5-23.6
	c3-6.6,4.1-6.5,10.2-2.8c6.7,4,14,7.1,21.2,10.2c1.5,0.6,3.8-0.9,5.7-1.3c1-0.2,2.2-0.1,3,0.4c0.4,0.2,0.2,1.8-0.1,2.6
	c-1.3,2.5-2.6,5-4.2,7.3c-1.5,2.2-2.6,1.5-3.9-0.6c-1.1-1.8-2.4-3.7-4.2-4.6c-7.1-3.8-14.3-7.2-21.6-10.6c-0.5-0.2-1.8,0.2-2,0.6
	c-0.9,1.8-1.6,3.7-2.2,5.6c-0.9,3-1.7,6-2.5,9c4.9,1.3,9.1,5.9,15,3.1c0.6-0.3,2-0.1,2.2,0.2c0.4,0.8,0.6,2.1,0.2,2.8
	c-1.7,2.9-4,4.9-7.6,3.6C144.2,544.3,142.3,543.2,139.8,542.3z"/>
<path class="st1" d="M517.8,543.3c5.8,7.1,8.3,15.3,11,23.4c0.4,1.2,0.8,2.4,1,3.6c0.6,3.5-1.4,4.5-4.3,4
	c-9.6-1.7-18.2-5.3-23.5-14.2c-0.4-0.6-1.4-0.9-2.1-1.3c-0.4,1.3-1.3,2.9-1,4c1.3,4.3,2.9,8.5,4.5,12.6c1.6,4.3,2.6,9.2,8.9,9.1
	c0.5,0,1.6,2.9,1.4,3.1c-2.9,2.1-5.9,4-9,5.7c-0.5,0.3-2.8-1.3-2.8-1.8c1.8-8.9-5.5-15.4-6.3-23.6c-0.4-4-2.6-7.9-3.6-11.9
	c-0.3-1.1,0.6-3,1.6-3.6c1.1-0.7,3.4-0.9,4.2-0.3c4.1,3.3,7.7,7.1,11.7,10.4c2.4,2,5.1,3.6,7.9,4.9c1.5,0.7,3.3,0.6,5,0.8
	c0-1.9,0.6-4.1-0.1-5.7c-2.8-6.5-6.1-12.8-9-19.2c-0.6-1.3-0.7-4.2-0.5-4.2c2.3-0.6,4.7-0.8,7.1-1.1c0,0.6,0.2,1.3,0,1.7
	C519.3,540.7,518.5,541.7,517.8,543.3z"/>
<path class="st1" d="M246.8,62.3c1.3-1.1,3.1-2.8,2.8-3.3c-1.8-3.3-3.5-7-6.3-9.3c-2.4-1.9-3.8-3.7-1.7-5.4c1.4-1.1,5.2-0.7,6.8,0.5
	c2.3,1.9,3.7,5,5.3,7.7c4.7,8,9.3,16.1,13.9,24.2c0.4,0.7,1.1,1.2,1.7,1.8c1.4,1.2,2.8,2.4,4.2,3.5c-2,0.8-4,1.7-6,2.3
	c-1.8,0.6-3.6,0.9-5.5,1.2c-0.9,0.1-1.8-0.1-2.8-0.1c0.2-0.9,0.5-1.8,0.7-2.8c0.3-1.6,1.1-3.4,0.6-4.8c-0.8-2.1-2.5-3.9-3.7-5.9
	c-4.5-7.3-4.4-6.6-12.3-5.8c-6.9,0.7-5.6,5.6-6.7,9.5c-0.7,2.6-1.1,5.4-0.9,8c0.1,1.6,1.3,4,2.7,4.6c3.1,1.3,1.9,2.5,0.3,3.4
	c-2.1,1.2-4.5,2-6.9,2.5c-0.3,0.1-1.9-2.6-1.7-3.7c0.9-4.4,2.5-8.6,3.4-13c1.5-7.3,2.7-14.6,4.1-22c0.1-0.7,0.8-1.4,1.1-2.1
	c0.3,0.8,0.6,1.6,0.8,2.5c0.1,0.3,0.1,0.7,0,1C238.2,63.1,241.1,63.9,246.8,62.3z"/>
<path class="st1" d="M194.8,75.3c0-1-0.1-1.5,0-2c0.6-2.7,1.2-5.3,1.9-8c0.4,2.6,0.7,5.1,1.1,7.7c0.3,1.7,0.8,3.3,1.1,5
	c2.3-1.1,4.8-1.9,6.8-3.4c0.6-0.5,0.2-3.2-0.6-4.2c-2-2.6-4.8-4.5-6.7-7.2c-0.8-1.1-0.1-3.3-0.2-4.9c1.7,0.1,4.2-0.6,5,0.3
	c3.9,4.4,7.6,9.1,11,13.9c3.4,4.7,6.7,9.5,9.5,14.6c2.6,4.7,0.6,9.4-3.9,10.2c-1.1,0.2-2.4-0.5-3.6-0.8c0.4-0.8,1-1.6,1.3-2.5
	c0.3-0.9,0.8-2.1,0.4-2.7c-2.6-4.1-5-8.4-8.2-12.1c-2.3-2.6-12.5,2-13,5.9c-0.9,6.5-1.6,13.1-2,19.7c-0.2,2.9-0.7,5.2-3.8,5.8
	c-1.5,0.3-3.2-0.1-4.8-0.1c0.7-1.1,1.6-2,2.1-3.2c1.2-2.8,2.7-5.6,3.3-8.6c0.8-3.6,0.6-7.4,1.1-11.1
	C193.4,83.5,194.2,79.7,194.8,75.3z"/>
<path class="st1" d="M404.1,85c-8.8-7.6-10.8-16.8-8.4-27.6c0.7-3.3,0-7,0.2-10.5c0-0.9,1.1-2.6,1.5-2.6c2.3,0.3,4.5,1.1,6.8,1.7
	c-0.5,0.9-1.1,1.8-1.4,2.8c-1,2.9-2,5.8-2.8,8.8c-2.9,10.9,2.5,21.2,13,25.1c2.9,1.1,9.9-1.6,11.8-5.3c2.9-5.7,5.4-11.7,7.8-17.7
	c0.4-1.1-0.5-2.6-0.7-4c-0.2-1.3-0.2-2.5-0.4-3.8c1.1,0.1,2.2,0,3.2,0.2c1.7,0.3,3.4,0.6,4.9,1.4c0.5,0.3,0.4,2.8,0.3,2.9
	c-4,1.1-3.3,4.8-3.9,7.4c-2.2,9-6,16.9-13.3,23c-3.9,3.2-10.8,3.2-16-0.3C406,86.2,405.1,85.7,404.1,85z"/>
<path class="st1" d="M546.6,567c-1.3,1.5-2.4,2.8-3.4,4.1c-0.8-1.8-1.6-3.7-2.3-5.5c-2.9-7.1-5.7-14.3-8.6-21.4
	c-1.7-4.1-3.7-8.1-5.3-12.3c-0.4-1-0.3-2.8,0.4-3.4c1.4-1.3,3.4-2.1,5.1-3.2c0.3,1,0.8,2.1,0.7,3.1c-0.1,1.3-1.5,2.9-1.1,3.9
	c1.2,3.5,3,6.7,4.5,10.1c0.8-0.5,1.9-0.7,2.3-1.4c3.8-7.2,11-12.9,10.1-22.3c0-0.4,0.9-0.9,1.3-1.4c0.5,0.7,1.5,1.5,1.5,2.2
	c-0.2,3.4-0.6,6.7-0.9,10.1c-0.2,2.3,0,3.6,2.7,1.7c3.2-2.2,6-0.9,8.4,1.6c1.9,1.9,3.7,3.8,5.7,5.6c1,1,2.2,2,3.5,2.4
	c1.1,0.4,2.4,0,3.7-0.1c-1.1,1.4-2.1,2.8-3.3,4.1c-1,1.1-2,2.2-3.2,3.2c-0.8,0.6-1.9,0.9-2.8,1.4c0-1.1-0.6-2.8,0-3.3
	c2.3-1.9,0.4-2.8-0.5-4.3c-6-11-16-9.3-22.2-0.3c-1.3,1.9-4.1,4.2-3.7,5.8c1.1,5.1,3.3,9.9,5.2,14.8c0.2,0.6,1.6,0.9,2.5,1.1
	c1,0.2,2-0.1,3-0.1C548.8,564.3,547.8,565.5,546.6,567z"/>
<path class="st1" d="M479.8,557.3c1.1-0.2,1.7-0.7,2.2-0.7c1.2,0.1,2.3,0.5,3.4,0.8c-0.6,0.8-1,1.9-1.7,2.4
	c-2.2,1.6-5.9,2.5-6.5,4.5c-0.6,2.1,1.7,5,2.6,7.6c2.4,7.2,4.6,14.4,7.1,21.5c1,2.9,2.5,5.2,6.4,3c1-0.6,3,0.5,4.6,0.8
	c-1.1,1.2-1.9,2.9-3.2,3.5c-3.5,1.6-7.2,2.7-10.8,3.9c-0.6,0.2-1.6,0.2-2-0.2c-0.5-0.4-0.9-1.8-0.7-1.9c5.8-4,1-8.5,0.1-12.3
	c-1.8-7.6-4.7-15-7.5-22.3c-0.5-1.3-2.9-1.8-4.5-2.6c-0.6-0.3-1.4-0.3-2.1-0.5c0.2-0.7,0.2-1.8,0.7-2
	C471.6,561,475.5,559.2,479.8,557.3z"/>
<path class="st0" d="M366.8,243.3c5,0.3,9.6,0.6,14.1,1.1c0.7,0.1,1.3,0.9,1.9,1.3c-0.9,0.2-1.8,0.6-2.7,0.6c-5-0.3-10.1-0.6-15.1-1
	c-3.2-0.3-4.3,0.8-4.3,4.1c-0.1,9.7-0.6,19.5-0.9,29.2c-0.3,7-0.6,14.1-1,21.1c-0.1,1.2-0.9,2.3-1.3,3.4c-0.5-1.2-1.6-2.4-1.6-3.5
	c0.1-4.5,0.7-9,0.9-13.6c0.2-3.7-0.2-7.5,0.1-11.2c0.4-4.9,1.4-9.8,1.6-14.8c0.2-4.3-0.2-8.7-0.8-12.9c-0.1-0.8-2.5-1.8-3.9-1.8
	c-9-0.2-18,0-27-0.1c-1.3,0-2.6-0.9-3.9-1.4c1.4-0.5,2.8-1.5,4.2-1.5C340.2,242.6,353.3,242.9,366.8,243.3z"/>
<path class="st0" d="M475.1,385.5c-12.3,5-24.3,9.8-36.4,14.4c-8.6,3.3-17.4,6.2-26.1,9.4c-5.2,1.9-10.3,4.1-15.5,5.9
	c-1.2,0.4-2.7-0.1-4-0.2c1-0.8,1.9-2,3.1-2.4c7.7-2.8,15.5-5.3,23.1-8.2c9.8-3.8,19.3-8.1,29.1-11.9c4.2-1.6,8.5-2.7,12.8-4.2
	c2.5-0.8,4.8-2,7.3-2.9c3.8-1.4,7.5-2.7,11.3-4c1.5-0.5,3-0.7,4.6-1c1.1-0.2,2.3-0.4,3.4-0.7c-0.7,0.8-1.3,2.1-2.2,2.4
	C482.2,383.3,478.7,384.2,475.1,385.5z"/>
<path class="st1" d="M322.8,78.3c-8.7,3.2-22.8-1.5-25.9-13.7c-0.2-0.8,0.5-2.1,1.2-2.9c0.2-0.2,1.7,0.2,2.3,0.7
	c3.1,2.2,5.9,4.9,9.2,6.8c5.8,3.3,11.9,4.9,18.5,2.4c0.8-0.3,1.8,0.1,2.7,0.1c-0.3,1-0.3,2.5-1,3C327.8,76.1,325.5,77.1,322.8,78.3z
	"/>
<path class="st0" d="M481.8,499.3c-4.6,1.3-8.7,2.8-12.8,4c-12.6,3.7-25.2,7.4-37.8,11.1c-8,2.3-16.1,4.6-24.1,6.9
	c-3,0.9-5.8,2-8.8,2.9c-0.4,0.1-1-0.4-1.5-0.7c0.5-0.4,0.9-1.1,1.5-1.2c12.6-4,25.2-8.1,37.9-12c14.6-4.5,29.3-8.7,44-13.1
	c2.3-0.7,4.5-1.9,6.9-2.7c0.8-0.3,1.8,0.1,2.7,0.2c-0.6,0.8-1,2-1.9,2.4C486.2,498.1,484.2,498.6,481.8,499.3z"/>
<path class="st0" d="M449.8,446.3c3.8-1.3,7-2.8,10.4-3.9c0.7-0.2,1.8,0.7,2.6,1c-0.6,0.6-1.2,1.6-1.9,1.8
	c-12.1,4.1-24.3,8-36.5,12.1c-10.2,3.4-20.4,7-30.6,10.4c-0.9,0.3-2,0-3,0c0.7-0.7,1.3-1.7,2.1-2c5-1.9,10.1-3.7,15.2-5.4
	c5.8-2,11.7-4,17.5-6C433.6,451.6,441.5,448.9,449.8,446.3z"/>
<path class="st0" d="M405.8,279.3c0,8.2-0.2,15.8,0.1,23.4c0.1,3.3-1,3.8-3.8,3.6c-9.3-0.5-18.7-0.7-28-1.1c-1.1-0.1-3-1-3-1.5
	c0.1-1.8,0.8-3.6,1.2-5.4c0.5,0.3,1.4,0.5,1.4,0.8c0.9,5.1,4.8,4.2,8.3,4.2c1.5,0,3-0.1,4.5,0c2.5,0.1,5.2,0.6,4.3-3.5
	c-0.1-0.4,0.5-1,0.7-1.5c0.4,0.5,1.2,1,1.2,1.6c0.1,5.1,3.8,4.6,7.1,4.4c3.8-0.2,3.9-3.2,3.9-5.9c0.1-6.3,0-12.6,0.1-19
	c0-0.7,0.8-1.4,1.2-2.1C405.3,277.8,405.6,278.3,405.8,279.3z"/>
<path class="st0" d="M333.6,159.5c-9-0.2-17.7-0.2-26.5-0.3c-1.4,0-2.8-1.3-4.3-2c1.3-0.3,2.6-0.9,3.9-0.9
	c7.2,0.2,14.4,0.7,21.7,0.9c6.5,0.2,13.1-0.1,19.6,0.1c1.3,0,2.6,1.2,3.9,1.9c-1.3,0.3-2.5,1-3.8,1
	C343.3,160.2,338.6,159.9,333.6,159.5z"/>
<path class="st0" d="M389.8,459.3c-0.4,1.7-0.9,2.8-1.3,4c-0.6-0.9-1.6-1.8-1.6-2.7c-0.1-6-0.1-12.1-0.1-18.1
	c0-5.8-0.1-11.6,0.1-17.5c0-1.3,1.3-2.5,2-3.8c0.3,1.1,0.8,2.3,0.8,3.4C389.9,436,389.8,447.4,389.8,459.3z"/>
<path class="st0" d="M297.8,242.3c0.3,6.6,0.8,12.6,0.9,18.7c0,1.1-1.6,2.2-2.5,3.3c-0.4-1-1.3-2-1.3-2.9
	c-0.1-10.2-0.1-20.4-0.1-30.6c0-0.3-0.1-0.7,0-1c0.8-1.5,1.6-3,2.4-4.5c0.5,1.8,1.5,3.5,1.5,5.3C298.7,234.3,298.2,238,297.8,242.3z
	"/>
<path class="st0" d="M406.8,268.3c0,1.7,0.2,2.9,0,4c-0.2,1-0.8,2-1.2,3c-0.6-1-1.7-2.1-1.7-3.1c0.2-7,0.4-14,1-21
	c0.3-4-1.1-5.3-5-5c-3.8,0.3-7.6,0.1-11.4,0c-0.5,0-1.1-0.7-1.6-1.1c0.5-0.3,1-0.8,1.5-0.8c6-0.1,12.1-0.1,18.1,0
	c1.8,0,2.3,0.5,1.3,2.9c-1.3,3.1-0.8,7-0.9,10.6C406.8,261.1,406.8,264.5,406.8,268.3z"/>
<path class="st0" d="M317.8,281.3c-0.3,5.8-0.6,11.2-1,16.5c0,0.5-0.5,1-0.8,1.5c-0.4-0.5-1.1-1.1-1.1-1.6c0.3-8.3,0.6-16.7,1-25
	c0.2-4.9,0.6-9.8,0.9-14.7c0.2-2.9,0.6-5.7,1-8.6c0.1-0.4,0.7-0.8,1.1-1.1c0.3,0.5,0.8,1,0.8,1.4c-0.4,8.1-0.8,16.3-1.3,24.4
	C318.4,276.3,318.1,278.5,317.8,281.3z"/>
<path class="st0" d="M427.8,436.3c0.3,4.2,0.8,7.8,0.9,11.5c0,1.1-0.9,2.3-1.3,3.4c-0.5-1.1-1.5-2.1-1.5-3.2
	c-0.1-11.8-0.1-23.7,0-35.5c0-0.8,0.6-1.5,1-2.3c0.5,0.7,1,1.4,1.6,2.1c0.1,0.1,0.3,0.2,0.3,0.4
	C428.4,420.4,428.1,428.1,427.8,436.3z"/>
<path class="st0" d="M375.8,490.3c-0.3,8.2-0.6,16-1.1,23.7c0,0.8-0.9,1.5-1.4,2.3c-0.5-0.8-1.4-1.5-1.4-2.3
	c-0.1-7.8-0.1-15.6,0-23.5c0-1.1,1-2.2,1.6-3.2C374.3,488.1,375,488.9,375.8,490.3z"/>
<path class="st0" d="M431.1,499c-0.2-9-0.5-17.8,0-26.5c0.1-1.2-4.2-3.5,0.4-4.2c1-0.2,2-0.5,3-0.8c-0.4,0.9-1,1.8-1.1,2.8
	c-0.1,1.4,0.4,2.9,0.4,4.3c-0.2,5.3-0.4,10.6-0.7,15.9c-0.1,2.5-0.1,5-0.4,7.5C432.7,498.4,431.8,498.8,431.1,499z"/>
<path class="st0" d="M370.8,426.3c-3.8,1.7-7,3.4-10.4,5c-0.6,0.3-1.4,0-2.1,0c0.3-0.6,0.4-1.3,0.8-1.7c0.8-0.8,1.6-1.8,2.5-2.2
	c7-3.2,13.9-6.3,21-9.3c1.2-0.5,2.8-0.1,4.2,0c-1,0.5-1.9,1.1-2.9,1.6C379.8,421.8,375.6,424.1,370.8,426.3z"/>
<path class="st0" d="M394.8,200.3c-0.7-10.7-0.9-21.4-0.9-32.1c0-1,1.2-1.9,1.9-2.9c0.3,0.9,1,1.9,1,2.8
	C396.4,178.8,395.8,189.5,394.8,200.3z"/>
<path class="st0" d="M402.8,485.3c0.2-2.7,0.2-4.8,0.6-7c0.1-0.4,1.3-0.7,2-1c0.2,0.6,0.5,1.2,0.4,1.8c-0.3,8-0.6,16.1-1,24.1
	c0,0.7-0.8,1.4-1.2,2.1c-0.3-0.8-0.7-1.7-0.8-2.5C402.8,497.1,402.8,491.4,402.8,485.3z"/>
<path class="st0" d="M479.8,469.3c0-3.8-0.1-7.1,0.1-10.4c0-0.9,0.7-1.7,1.1-2.6c0.6,0.8,1.7,1.7,1.7,2.5c0.1,6.9,0.1,13.9,0,20.8
	c0,0.8-1,1.6-1.6,2.5c-0.4-0.8-1.2-1.6-1.3-2.4C479.8,476.4,479.8,473.1,479.8,469.3z"/>
<path class="st0" d="M298.6,181.5c0.2,5.6,0.3,10.9,0.2,16.2c0,1.4-0.5,2.8-1,4.1c-0.2,0.6-0.9,1-1.3,1.5c-0.2-0.5-0.6-1.1-0.6-1.6
	c0.3-6.7,0.7-13.3,1.2-20C297.1,181.5,297.9,181.4,298.6,181.5z"/>
<path class="st0" d="M314.8,236.3c-1-0.2-2.9-1-2.9-1.7c0.1-6.7,0.5-13.4,0.9-20.1c0-0.4,0.7-0.8,1-1.3c0.3,0.4,0.9,0.9,0.9,1.3
	c-0.2,5-0.7,10.1-0.8,15.1C313.9,231.7,314.5,233.8,314.8,236.3z"/>
<path class="st0" d="M457.6,489.5c-0.4-7.4-0.6-14.6-0.7-21.8c0-0.5,0.5-0.9,0.8-1.4c0.4,0.5,1.1,1.1,1.1,1.6
	c0.3,7,0.6,14.1,0.8,21.1c0,0.3-0.6,0.7-1,1C458.4,490.1,458.1,489.9,457.6,489.5z"/>
<path class="st0" d="M367.8,269.3c0,6.6,0,12.7,0,18.9c0,0.7-0.4,1.4-0.6,2.1c-0.6-0.6-1.3-1.1-1.6-1.8c-0.4-1.2-0.8-2.4-0.7-3.7
	c0.2-5,0.6-10,1-15C366,269.4,367.2,269.1,367.8,269.3z"/>
<path class="st0" d="M362.8,535.3c-1.2,0-1.8,0-2.5,0c-0.8,0-1.7,0.1-2.5,0.2c0.7-0.7,1.3-1.9,2.2-2.1c3.6-1,7.2-1.8,10.8-2.5
	c1.3-0.2,2.6,0,4,0.1c-1.2,1.1-2.1,2.9-3.5,3.3C368.8,534.9,366,534.9,362.8,535.3z"/>
<path class="st1" d="M548.6,516c-1.6-0.1-2.9-0.4-4.3-0.8c0.7-1,1.3-2.3,2.2-3.1c1.8-1.5,3.8-2.7,5.8-3.8c0.1-0.1,1.5,1.5,1.4,1.6
	C552.2,512,550.5,513.9,548.6,516z"/>
<path class="st0" d="M399.8,212.3c0-4.7-0.1-8.8,0.1-12.9c0-0.7,0.8-1.4,1.2-2.1c0.3,0.7,0.7,1.3,0.7,2c0.1,5.3,0.1,10.6,0,15.9
	c0,1-0.8,2-1.2,3c-0.3-1-0.6-2-0.7-3C399.7,214.4,399.8,213.6,399.8,212.3z"/>
<path class="st0" d="M472.1,488.5c2.7-1.4,5.2-2.6,7.7-3.7c0.7-0.3,1.4-0.7,2-1c0,1,0.3,2.6-0.2,3c-1.6,1.1-3.5,1.8-5.4,2.5
	c-3,1.1-6.1,2.1-9.2,3c-0.6,0.2-1.5-0.5-2.3-0.9c0.6-0.4,1.1-0.9,1.7-1.1C468.3,489.7,470.1,489.3,472.1,488.5z"/>
<path class="st0" d="M360.1,226.5c2.6,2.4,2.4,9.4-0.2,11.1c-0.7,0.5-1.8,0.4-2.7,0.6c0.2-0.8,0.3-1.6,0.5-2.4
	C358.5,232.8,359.2,229.8,360.1,226.5z"/>
<path class="st0" d="M457.8,526.3c0,1.5,0.1,2.5-0.1,3.5c-0.1,0.6-0.8,1-1.2,1.5c-0.3-0.5-0.7-1-0.7-1.5c-0.1-4.7-0.1-9.4,0-14
	c0-0.5,0.5-1,0.8-1.5c0.4,0.5,1.1,1.1,1.1,1.6C457.9,519.2,457.8,522.5,457.8,526.3z"/>
<path class="st0" d="M374.8,276.3c0,4.5,0,8.5-0.1,12.4c0,0.5-0.8,1-1.2,1.6c-0.3-0.5-0.7-1-0.7-1.5c-0.1-4.6-0.1-9.3,0-13.9
	c0-0.5,0.8-1,1.2-1.6C374.3,274.1,374.6,274.9,374.8,276.3z"/>
<path class="st0" d="M399.8,284.3c-0.3,1-0.5,1.5-0.8,2c-0.4-0.5-1.2-1-1.2-1.6c-0.1-4.6-0.1-9.3,0-13.9c0-0.5,0.5-1,0.7-1.5
	c0.4,0.5,1.2,1,1.2,1.6C399.9,275.1,399.8,279.5,399.8,284.3z"/>
<path class="st0" d="M396.8,291.3c0.6-1.6,1.1-2.7,1.7-3.8c0.4,1.1,1.3,2.3,1.2,3.4c-0.3,2.8-1.1,5.6-1.8,8.4
	C397.6,296.8,397.2,294.3,396.8,291.3z"/>
<path class="st0" d="M407.8,159.3c3.9,1.2,1,2.9,0.3,2.9c-2.9,0-5.8-0.5-8.7-0.9c-0.6-0.1-1.1-0.8-1.6-1.2c0.7-0.3,1.3-0.7,2-0.8
	C402.3,159.2,404.8,159.3,407.8,159.3z"/>
<path class="st0" d="M448.1,497.5c-2.2,0.8-4.1,1.5-6,2c-0.7,0.2-1.5,0-2.2,0c0.5-0.4,0.9-1,1.5-1.2c3.9-1.4,7.9-2.7,11.8-4
	c0.4-0.1,1.1,0.4,1.6,0.6c-0.5,0.5-0.9,1.2-1.4,1.3C451.7,496.7,450,496.9,448.1,497.5z"/>
<path class="st0" d="M367.8,296.3c0,2.5,0.1,4.4-0.1,6.4c0,0.6-0.6,1.3-1.1,1.5c-0.4,0.2-1.7-0.2-1.7-0.4c0.1-2.9,0.3-5.7,0.4-8.6
	C366.2,295.4,367,295.6,367.8,296.3z"/>
<path class="st0" d="M476.8,514.3c0.4-2.7,0.8-4.8,1.2-7c0.3,2.2,0.5,4.3,0.7,6.5c0,0.3,0.1,0.7,0,1c-0.4,1.8-0.8,3.7-1.2,5.5
	C477.3,518.4,477.1,516.6,476.8,514.3z"/>
<path class="st0" d="M378.1,470.5c1.8-0.3,3.2-0.3,4.8-0.4c-1.6,0.7-3.2,1.4-4.7,2.1c-1.8,0.9-3.5,1.9-5.4,2.6
	c-0.8,0.3-1.9-0.2-2.8-0.3c0.7-0.4,1.3-0.9,2.1-1.2C373.9,472.4,375.9,471.6,378.1,470.5z"/>
<path class="st0" d="M390.8,285.3c0.3-1.3,0.5-2.2,0.8-3c0.4,0.5,1.2,1,1.2,1.6c0.1,3,0.1,6,0,8.9c0,0.5-0.5,1-0.7,1.5
	c-0.4-0.5-1.1-1-1.2-1.5C390.8,290.4,390.8,288.1,390.8,285.3z"/>
<path class="st0" d="M323.8,268.3c0-3.5,0-6.5,0-9.4c0-0.5,0.4-1.1,0.7-1.5c0.1-0.1,1.2,0.3,1.2,0.5c0,3.8-0.1,7.5-0.2,11.3
	C325,269,324.4,268.9,323.8,268.3z"/>
<path class="st0" d="M295.8,214.3c0-1.5-0.1-2.5,0.1-3.5c0.1-0.6,0.8-1,1.2-1.5c0.2,0.5,0.7,1,0.7,1.5c0.1,1.3,0.1,2.7,0,4
	c-0.2,1.8-0.5,3.7-0.7,5.5C296.7,218.4,296.3,216.6,295.8,214.3z"/>
<path class="st0" d="M386.1,237.5c2.3-0.6,4.3-1.2,6.3-1.1c1.2,0,2.3,1.2,3.5,1.8c-0.9,0.4-1.8,1.1-2.7,1
	C390.7,238.9,388.3,238.3,386.1,237.5z"/>
<path class="st0" d="M348.8,279.3c0.7,3.2,0.9,6.5,1,9.7c0,0.4-0.6,0.9-1,1.3c-0.3-0.4-1-0.9-1-1.3
	C348,285.8,348.2,282.5,348.8,279.3z"/>
<path class="st0" d="M328.8,303.3c-1.7,0-2.8,0.1-4,0c-0.4,0-0.7-0.5-1-0.7c0.4-0.4,0.6-1.1,1.1-1.2c1.2-0.3,2.5-0.3,3.8-0.4
	c0.9-0.1,1.9-0.5,2.8-0.4c0.4,0,0.8,0.9,1.2,1.3C331.6,302.3,330.5,302.8,328.8,303.3z"/>
<path class="st0" d="M329.8,236.3c1.4-0.6,2.3-1.3,3.3-1.7c0.4-0.1,1.4,0.6,1.7,1.1c0.3,0.6,0,1.4,0,2.1c-2.6-0.3-5.1-0.5-7.7-0.8
	c0.1-0.6,0.1-1.1,0.2-1.7C328,235.6,328.7,236,329.8,236.3z"/>
<path class="st0" d="M490.6,435c-2.3,0.9-4.3,1.7-6.4,2.2c-0.7,0.2-1.6-0.5-2.4-0.8c0.5-0.4,1-1.1,1.6-1.2
	C485.9,435,488.2,431.6,490.6,435z"/>
<path class="st0" d="M348.8,261.3c0.6-0.9,1.1-1.4,1.7-1.8c0.1,0.6,0.3,1.2,0.3,1.9c-0.2,2.7-0.5,5.3-0.8,8
	C349.7,266.8,349.2,264.3,348.8,261.3z"/>
<path class="st0" d="M385.8,525.3c2.3,0,4.2-0.1,6-0.1c-1.9,0.7-3.8,1.4-5.7,2.1c-0.4,0.2-0.8,0.4-1.3,0.5c-0.9,0.2-1.8,0.2-2.7,0.3
	c0.7-0.6,1.4-1.2,2.1-1.8C384.6,525.9,385,525.6,385.8,525.3z"/>
<path class="st0" d="M417.6,505c1.2-0.4,2.1-0.8,3-0.7c0.8,0.1,1.5,0.6,2.3,0.9c-0.7,0.3-1.5,0.7-2.3,1c-1,0.4-2,0.9-3,1
	c-1.1,0.1-2.3-0.1-3.5-0.2C415.2,506.4,416.2,505.8,417.6,505z"/>
<path class="st0" d="M374.8,222.3c0.6-0.9,1.1-1.4,1.7-1.8c0.1,0.6,0.3,1.2,0.3,1.9c-0.2,2.3-0.5,4.6-0.7,7
	C375.7,227.1,375.2,224.9,374.8,222.3z"/>
<path class="st0" d="M381.8,239.3c-2.7-0.6-4.9-1.1-7.1-1.7c-0.1,0,0.1-0.8,0.2-1.3c2.6,0.4,5.2,0.9,7.8,1.3
	C382.6,238.2,382.4,238.7,381.8,239.3z"/>
<path class="st0" d="M322.8,276.3c0.6-0.9,1.1-1.4,1.7-1.8c0.1,0.6,0.3,1.2,0.3,1.9c-0.2,2.3-0.5,4.6-0.7,7
	C323.7,281.1,323.2,278.9,322.8,276.3z"/>
<path class="st0" d="M241.6,619.5c-0.8,0.6-1.9,1.4-2.7,1.1c-1.5-0.5-2.7-1.6-4-2.5c0.5-0.3,1-0.9,1.4-0.8
	C238,617.9,239.6,618.6,241.6,619.5z"/>
<path class="st0" d="M296.8,174.3c0.6-0.9,1.1-1.4,1.7-1.8c0.1,2.4,0.2,4.9,0.3,7.3c0,0.2-0.8,0.5-1.2,0.5c-0.3-0.1-0.7-0.6-0.7-1
	C296.8,177.7,296.8,176.3,296.8,174.3z"/>
<path class="st0" d="M318.8,227.3c0.3-1.3,0.5-2.2,0.8-3c0.4,0.7,0.9,1.3,1.2,2c0.2,0.4,0.1,1,0,1.5c-0.2,1.5-0.5,3-0.7,4.5
	C319.7,230.8,319.3,229.3,318.8,227.3z"/>
<path class="st0" d="M406.8,182.3c0-1.5-0.1-2.5,0.1-3.5c0.1-0.6,0.8-1,1.2-1.5c0.3,0.5,0.7,1,0.7,1.5c0.1,1.5,0,3,0,4.4
	C408.2,183.1,407.5,182.9,406.8,182.3z"/>
<path class="st0" d="M325.8,229.3c0.2-2.3,0.5-4.2,0.7-6c0.3,0.1,0.9,0.1,0.9,0.2c0.2,2.1,0.3,4.2,0.4,6.3
	C327.2,229.7,326.5,229.8,325.8,229.3z"/>
<path class="st0" d="M306.1,245c0.7-1.1,1.6-2.1,2.7-2.6c0.3-0.2,1.3,1.1,2,1.6c-0.8,0.4-1.6,0.9-2.5,1.2
	C307.7,245.4,307,245.3,306.1,245z"/>
<path class="st0" d="M394.8,514.3c0.5-1,1.4-2.3,2.6-2.9c0.8-0.4,2.1,0.1,3.2,0.2c-0.3,0.6-0.5,1.5-0.9,1.6
	C398.4,513.7,396.8,513.9,394.8,514.3z"/>
<path class="st0" d="M402.8,178.3c-3.9,0.8-1.2-2.3-1.9-3.5c-0.1-0.2,0.8-1,1.2-1.5C402.4,174.8,402.6,176.3,402.8,178.3z"/>
<path class="st0" d="M330.8,282.3c0.5,2,0.5,4,0.5,6c0,0-0.9,0-0.9,0C330.3,286.3,330.3,284.3,330.8,282.3z"/>
<path class="st0" d="M348.1,293.5c0.4,0.3,0.7,0.9,0.7,1.5c0,1.6-0.1,3.3-0.2,4.9c-0.4-0.1-1-0.3-1-0.4
	C347.7,297.6,347.8,295.7,348.1,293.5z"/>
<path class="st0" d="M369.8,166.3c0.3-1.3,0.5-2.2,0.8-3c0.4,1,1.2,2,1.2,3c0,1-0.7,2-1.2,3C370.3,168.4,370.1,167.6,369.8,166.3z"
	/>
<path class="st0" d="M370.1,236c0.1,0.9-0.1,1.6-0.3,2.2c-1-0.5-1.9-0.9-2.9-1.4c0.6-0.9,1.1-1.7,1.7-2.6
	C369,234.8,369.4,235.3,370.1,236z"/>
<path class="st0" d="M386.6,515c0.9,0.1,1.5,0.5,2.2,0.8c-1.1,0.5-2.2,1.1-3.4,1.3c-0.4,0.1-1-0.7-1.5-1.2
	C384.7,515.8,385.5,515.5,386.6,515z"/>
<path class="st0" d="M315.8,166.3c2-0.1,2.2,0.1,1.9,2c-0.1,0.7-0.8,1.3-1.2,2C316.3,169.1,316.1,167.9,315.8,166.3z"/>
<path class="st0" d="M348.8,252.3c0.2-1.3,0.5-2.2,0.8-3c0.4,0.3,1.2,0.7,1.2,1c-0.1,1.3-0.4,2.7-0.7,4
	C349.7,253.8,349.3,253.3,348.8,252.3z"/>
<path class="st0" d="M400.8,541.3c-0.5-1.7-0.5-3.3-0.5-5c0,0,0.9,0,0.9,0C401.3,537.9,401.3,539.6,400.8,541.3z"/>
<path class="st0" d="M323.1,312.3c0.1-1,0.1-2.5,0.7-2.9c0.7-0.4,2,0.3,3,0.5c-0.9,0.5-1.9,1.1-2.8,1.6
	C323.8,311.7,323.6,312,323.1,312.3z"/>
<path class="st0" d="M335.1,295.5c0.7,0.9,1.2,2.1,1.7,3.3c-0.4,0.1-0.8,0.3-1.3,0.4C335.3,298.1,335.1,296.9,335.1,295.5z"/>
<path class="st0" d="M401.6,530.5c0,1.4-0.2,2.6-0.4,3.8c-0.4-0.1-0.8-0.3-1.3-0.4C400.4,532.7,400.9,531.5,401.6,530.5z"/>
<path class="st0" d="M459.8,413.3c0.6-0.9,1.1-1.4,1.7-1.8c0,1.2,0,2.4,0,3.7C461,414.7,460.4,414.2,459.8,413.3z"/>
<path class="st0" d="M469.1,455.5c1.4-0.4,2.5-0.6,3.7-0.8c-0.2,0.5-0.4,1.5-0.5,1.5C471.1,456.2,470,455.9,469.1,455.5z"/>
<path class="st0" d="M320.8,212.3c-0.5-1.3-0.5-2.7-0.5-4c0,0,0.9,0,0.9,0C321.3,209.6,321.3,210.9,320.8,212.3z"/>
<path class="st0" d="M381.8,158.3c1.3,0.2,2.2,0.5,3,0.7c-0.7,0.4-1.5,1.3-1.9,1.1C382.2,159.9,381.8,158.9,381.8,158.3z"/>
<path class="st0" d="M408.8,192.3c-0.2,1.3-0.5,2.2-0.7,3c-0.4-0.7-1.3-1.5-1.1-1.9C407.2,192.7,408.2,192.3,408.8,192.3z"/>
<path class="st0" d="M373.8,265.3c0.5,1.3,0.5,2.7,0.5,4c0,0-0.9,0-0.9,0C373.3,267.9,373.3,266.6,373.8,265.3z"/>
<path class="st0" d="M322.1,293.5c0.7,0.9,1.2,2.1,1.7,3.3c-0.4,0.1-0.8,0.3-1.3,0.4C322.3,296.1,322.1,294.9,322.1,293.5z"/>
<path class="st0" d="M401.1,237c0.1,0.9-0.1,1.6-0.3,2.2c-0.6-0.3-1.3-0.6-1.9-0.8C399.5,237.9,400.2,237.3,401.1,237z"/>
<path class="st0" d="M470.6,441c-1.3,0.6-2.3,0.9-3.3,1.2c0-0.4,0-1,0.2-1C468.6,441,469.7,440.9,470.6,441z"/>
<path class="st0" d="M367.8,522.3c-0.3-0.7-0.2-1.3,0-2c0.7,0.3,1.3,0.5,2,0.8C369.3,521.4,368.8,521.9,367.8,522.3z"/>
<path class="st0" d="M298.8,166.3c-0.7,0.3-1.3,0.2-2,0c0.3-0.7,0.5-1.3,0.8-2C298,164.8,298.4,165.3,298.8,166.3z"/>
<path class="st0" d="M375.8,254.3c-0.4,1-0.8,1.5-1.2,2c-0.3-0.7-0.5-1.3-0.8-2C374.5,254.1,375.2,253.9,375.8,254.3z"/>
<path class="st0" d="M399.1,231c0-1.1,0.2-1.9,0.4-2.8c0.4,0.3,0.9,0.6,1.3,0.9C400.3,229.8,399.8,230.6,399.1,231z"/>
<path d="M232.8,617.3c-1,0.5-2,0.5-3,0.4c0,0,0-0.9,0-0.9C230.8,616.8,231.8,616.8,232.8,617.3z"/>
<path class="st0" d="M364.1,477c0.5-0.7,1.2-1.2,1.9-1.8c0.3,0.4,0.6,0.9,0.9,1.3C366,476.8,365.2,477.1,364.1,477z"/>
<path class="st0" d="M362.1,163.5c0.8,0.5,1.2,1.2,1.8,1.9c-0.4,0.3-0.9,0.6-1.3,0.9C362.3,165.4,362.1,164.6,362.1,163.5z"/>
<path class="st0" d="M400.1,223.5c0.7,0.6,1.2,1.5,1.6,2.4c-0.4,0.1-0.8,0.3-1.3,0.4C400.3,225.4,400,224.6,400.1,223.5z"/>
<path class="st0" d="M473.1,438.5c0.8,0.1,1.2,0.5,1.8,0.9c-0.9,0.2-1.8,0.5-2.7,0.7C472.4,439.7,472.6,439.2,473.1,438.5z"/>
<path d="M379.8,528.3c0,0.7-0.5,1.3-1.1,2c-0.3-0.3-0.6-0.5-0.9-0.8C378.3,529.1,378.8,528.7,379.8,528.3z"/>
<path class="st0" d="M338.8,528.3c-7.8,0-15.2,0.1-22.5,0c-5.9-0.1-11.7-0.4-17.6-1.1c-1.5-0.2-3.8-2.5-3.8-3.8
	c0-9.2,0.3-18.4,0.9-27.6c0.2-2.5,1.4-4.6,4.9-4.5c11.7,0.3,23.3,0,35,0.1c6.4,0,8.3,2.3,8,8.5c-0.4,8.2-0.8,16.4-1,24.6
	C342.8,526.9,342.3,528.6,338.8,528.3 M297.8,520.8c1,1.2,1.9,3.3,2.9,3.4c11.5,0.6,23,0.9,34.6,1c1.2,0,3.3-1.3,3.4-2.2
	c0.7-5,0.8-10,1.2-15.1c0.2-2.9-1.1-3.6-3.8-3.6c-10.1-0.2-20.2-0.6-30.2-1c-1,0-2-0.8-3-1.3c1-0.6,2.1-1.6,3.1-1.6
	c10.7-0.1,21.3,0,32-0.1c1,0,2.5-0.3,2.7-0.9c0.3-0.9,0-2.4-0.6-3.1c-0.6-0.7-2-0.9-3.1-0.9c-10.7-0.4-21.4-0.9-32.1-0.9
	c-1.7,0-4.7,1.9-4.9,3.2C298.9,505,298.5,512.4,297.8,520.8z"/>
<path class="st0" d="M259.8,526.3c-4-0.3-7.6-0.6-11.1-1.1c-0.7-0.1-1.3-0.9-1.9-1.3c0.7-0.2,1.4-0.6,2.2-0.6c8.7,0,17.4-0.2,26.1,0
	c4.3,0.1,5.8-1.6,5.8-5.8c0-3.9,0.6-7.7,0.9-11.6c0.3-2.8-1-3.7-3.7-3.7c-8.4-0.2-16.7-0.5-25.1-1c-1.4-0.1-2.8-1-4.2-1.5
	c1.3-0.1,2.7-0.4,4-0.4c7.3,0,14.7,0,22,0c1.3,0,2.9-0.5,3.9,0.1c2,1.1,3.7,1.4,3.8-1.1c0-1.3-1.9-3.1-3.3-3.8
	c-1.3-0.7-3.3-0.1-4.9-0.1c-7.9-0.3-15.7-0.6-23.6-1c-3.5-0.2-4.8,1.5-5,5c-0.4,7.7-1.2,15.4-2,23.1c-0.1,0.6-0.6,1.2-0.9,1.9
	c-0.4-0.6-1.1-1.1-1.2-1.7c-0.1-2.2,0.1-4.5,0.1-6.7c0-5.2,0-10.3,0-15.5c0-7.6,1.5-9.1,8.9-9.1c8.8,0,17.6,0,26.5,0
	c5.7,0,7.6,2,7.6,7.4c0,7,0,14,0,21c0,6.1-3.5,9.2-9.4,8.6C270.4,526.8,265.4,526.6,259.8,526.3z"/>
<path class="st0" d="M338.8,465.3c0,4.5,0.2,8.6-0.3,12.6c-0.1,0.9-2.5,2.3-3.8,2.3c-9.5,0.2-19,0-28.5,0.1c-5.8,0.1-3.7-5.1-4-7.2
	c-0.8-4.8,0-10,0.8-15c0.2-1.2,2.9-2.8,4.4-2.8c9.5,0.1,19,0.5,28.6,0.9c1.3,0.1,2.6,1.3,3.8,2c-1.3,0.3-2.6,0.9-3.8,0.9
	c-8.2-0.2-16.4-0.5-24.6-1c-3.9-0.3-4.9,1.3-4.7,4.8c0.2,3,0,6,0.1,9c0,5.2,1.2,6,6.1,5.3c3.5-0.5,7.1-0.1,10.7-0.1
	c3.2,0,6.5,0.2,9.6-0.2c0.6-0.1,1.3-2,1.5-3.2c0.5-3.2,0.6-6.4,1.1-9.6c0.1-0.8,1.1-1.4,1.6-2.1C338,463.1,338.4,463.9,338.8,465.3z
	"/>
<path class="st0" d="M251.8,457.3c5.9-8.5,14.3-4,21.6-4.8c2.5-0.3,5.1,0.4,7.6,0.9c1,0.2,1.8,1,2.7,1.5c-0.8,0.5-1.6,1.4-2.4,1.4
	c-6.7-0.2-13.4-0.4-20.1-1c-3.4-0.3-6.4,1.6-6.5,5.1c0,3.9-0.5,7.9,0.2,11.6c0.3,1.7,2.8,4.1,4.4,4.2c6.5,0.5,13.1,0.2,19.6,0.2
	c4.9,0,6.2-2.2,5.3-7c-0.5-3,0.1-6.2,0.5-9.4c0.1-0.5,1.1-0.9,1.6-1.4c0.4,0.7,1.2,1.3,1.2,2c0.1,5.2,0.3,10.4-0.1,15.5
	c-0.1,1.2-2.5,3.2-3.9,3.2c-8.8,0.3-17.7,0.6-26.5-0.1c-2.2-0.2-5.4-3.6-6-6.1c-1-4.5-0.4-9.3-0.4-14
	C250.9,458.5,251.5,458.1,251.8,457.3z"/>
<path class="st0" d="M212.8,479.3c-1.9-0.3-3.2-0.6-4.6-1c-0.8-0.2-1.6-0.6-2.4-0.9c0.9-0.7,1.8-2,2.7-2c5.2-0.2,10.3-0.3,15.5,0
	c3.6,0.2,4.9-0.8,4.9-4.7c0-4.5,1-9,1.4-13.5c0.1-0.9-0.8-2-1.3-2.9c-0.3-0.6-0.8-1-1.1-1.6c0.7,0.1,1.4,0.1,2.1,0.2
	c6.5,0.9,3.5,5.9,3.8,9.2c0.3,3.3-0.7,6.7-0.8,10.1c-0.2,6.2-0.9,7.1-6.9,7.1C221.8,479.3,217.6,479.3,212.8,479.3z"/>
<path class="st0" d="M203.8,474.3c0,1.5,0.2,2.6-0.1,3.5c-0.3,0.9-1.2,1.7-1.8,2.5c-0.4-0.9-1.1-1.7-1.1-2.6
	c-0.1-6.7-0.3-13.4,0.1-20c0.1-2,1.5-4.1,2.9-5.7c0.6-0.7,2.6-0.2,3.9-0.3c-0.6,0.7-1.4,1.3-1.9,2.1c-0.5,0.8-1,1.7-1,2.5
	C204.5,462.1,204.2,467.9,203.8,474.3z"/>
<path class="st0" d="M222.1,453c0.5-0.8,1.2-1.2,1.9-1.8c0.3,0.4,0.6,0.9,0.9,1.3C224,452.8,223.2,453.1,222.1,453z"/>
</svg>
